<svg xmlns="http://www.w3.org/2000/svg" width="92" height="90" fill="none" xmlns:v="https://vecta.io/nano"><g clip-path="url(#D)"><path d="M56.216 43.315l-9.078 8.665L8.803 88.566c-1.006.963-2.297 1.444-3.588 1.444a5.18 5.18 0 0 1-3.853-1.71c-2.023-2.233-1.759-5.726.569-7.631l45.206-36.842 4.981-4.056 4.097 3.544z" fill="url(#A)"/><path d="M46.741 52.421l-8.936 8.522-.823-8.757 4.89-3.984 4.869 4.22z" fill="#3a81d6" fill-opacity=".8"/><path d="M91.978 29.908c0 16.521-13.296 29.918-29.683 29.918-10.328 0-19.426-5.316-24.743-13.387a29.93 29.93 0 0 1-4.94-16.531C32.611 13.387 45.908 0 62.295 0A29.42 29.42 0 0 1 81.65 7.231a29.95 29.95 0 0 1 10.328 22.677z" fill="url(#B)"/><path d="M62.295 53.209c12.772 0 23.127-10.432 23.127-23.301S75.067 6.606 62.295 6.606 39.168 17.039 39.168 29.908s10.354 23.301 23.127 23.301z" fill="#fff"/><path opacity=".06" d="M91.978 29.908c0 16.521-13.296 29.918-29.683 29.918-10.328 0-19.426-5.316-24.743-13.387C71.027 43.694 79.851 15.118 81.66 7.231c6.313 5.49 10.318 13.612 10.318 22.677z" fill="#1a6fb5" fill-opacity=".5"/><path d="M62.295 29.959c2.684 0 4.859-2.192 4.859-4.896s-2.175-4.896-4.859-4.896-4.859 2.192-4.859 4.896 2.165 4.896 4.859 4.896zm0 2.448c-3.243 0-9.718 1.639-9.718 4.896v1.229a1.23 1.23 0 0 0 1.22 1.229h17.017a1.23 1.23 0 0 0 1.22-1.229v-1.229c-.02-3.247-6.496-4.896-9.739-4.896z" fill="url(#C)"/></g><defs><linearGradient id="A" x1="5.675" y1="84.327" x2="53.924" y2="40.792" gradientUnits="userSpaceOnUse"><stop stop-color="#67c3f3"/><stop offset="1" stop-color="#5a98f2"/></linearGradient><linearGradient id="B" x1="50.017" y1="2.113" x2="72.782" y2="52.905" gradientUnits="userSpaceOnUse"><stop stop-color="#67c3f3"/><stop offset="1" stop-color="#5a98f2"/></linearGradient><linearGradient id="C" x1="55.269" y1="28.395" x2="72.92" y2="36.939" gradientUnits="userSpaceOnUse"><stop stop-color="#b0f4ff"/><stop offset=".071" stop-color="#a6f1ff"/><stop offset=".294" stop-color="#8be8fd"/><stop offset=".521" stop-color="#78e1fd"/><stop offset=".754" stop-color="#6dddfc"/><stop offset="1" stop-color="#69dcfc"/></linearGradient><clipPath id="D"><path fill="#fff" d="M0 0h91.978v90H0z"/></clipPath></defs></svg>