<svg xmlns="http://www.w3.org/2000/svg" xmlns:xlink="http://www.w3.org/1999/xlink" width="80" height="72" fill="none" xmlns:v="https://vecta.io/nano"><g clip-path="url(#G)"><path d="M66.476 14.011H13.258v57.117h53.217V14.011z" fill="url(#B)"/><path d="M13.038 14.011c.064 0 .128.028.22.055V71.1c-4.12.321-7.597-.716-10.359-3.377C.945 65.833 0 63.613 0 61.099V34.408l-.009-10.185c0-4.101 2.211-7.083 6.276-9.102 2.092-1.028 4.413-1.184 6.771-1.11z" fill="url(#C)"/><path d="M57.181 14.002h4.982v57.107H17.571V14.02h5.294v-.596l-.009-6.147c-.018-1.431.367-2.679 1.486-3.652.789-.679 1.698-1.028 2.725-1.028l9.542-.009h16.057c1.404 0 2.569.459 3.487 1.523.734.853 1.009 1.853 1.009 2.973v6.469a2.72 2.72 0 0 0 .018.45zm-28.572 0h.551 7.606l14.213.009c.376 0 .459-.119.459-.477V8.717c0-.128-.018-.257-.037-.395H28.609v5.68z" fill="#fff"/><mask id="A" maskUnits="userSpaceOnUse" x="17" y="2" width="46" height="70" mask-type="alpha"><path d="M57.181 14.002h4.982v57.107H17.571V14.02h5.294v-.596l-.009-6.147c-.018-1.431.367-2.679 1.486-3.652.789-.679 1.698-1.028 2.725-1.028l9.542-.009h16.057c1.404 0 2.569.459 3.487 1.523.734.853 1.009 1.853 1.009 2.973v6.469c-.009.119 0 .257.018.45zm-28.572 0h.551 7.606l14.213.009c.376 0 .459-.119.459-.477V8.717c0-.128-.018-.257-.037-.395H28.609v5.68z" fill="#f7f9fc"/></mask><g mask="url(#A)"><path d="M58.096 0H21V14.02H58.096V0Z" fill="url(#D)"/></g><path d="M80 24.076c0-3.78-2.064-6.597-5.735-8.643-2.257-1.257-4.817-1.496-7.441-1.441-.404.009-.349.22-.349.441v19.81l-.009 34.811v2.064c1.652.055 3.221.064 4.762-.303 5.212-1.23 8.762-5.111 8.762-9.689L80 24.076z" fill="url(#E)"/><path d="M44.216 46.785v3.432 3.817c0 .762-.385 1.165-1.138 1.165h-6.221c-.688 0-1.073-.431-1.073-1.156v-6.827-.431h-.44-6.725c-.89 0-1.257-.358-1.257-1.248v-5.918c0-.899.358-1.257 1.248-1.257h6.689.477v-.385-6.826c0-.844.376-1.211 1.22-1.211h5.918c.927 0 1.284.349 1.284 1.294v6.762.376h.395l6.826.009c.835 0 1.193.367 1.193 1.202v5.946c0 .908-.349 1.257-1.239 1.257l-6.79.009c-.092-.009-.202-.009-.367-.009z" fill="url(#F)"/></g><defs><linearGradient id="B" x1="13.26" y1="42.566" x2="66.473" y2="42.566" xlink:href="#H"><stop stop-color="#b0f4ff"/><stop offset="1" stop-color="#69dcfc"/></linearGradient><linearGradient id="C" x1="0" y1="42.575" x2="13.26" y2="42.575" xlink:href="#H"><stop stop-color="#6cbcfc"/><stop offset="1" stop-color="#458dfc"/></linearGradient><linearGradient id="D" x1="20.996" y1="7.008" x2="58.094" y2="7.008" xlink:href="#H"><stop stop-color="#6cbcfc"/><stop offset="1" stop-color="#458dfc"/></linearGradient><linearGradient id="E" x1="66.469" y1="42.569" x2="80.001" y2="42.569" xlink:href="#H"><stop stop-color="#6cbcfc"/><stop offset="1" stop-color="#458dfc"/></linearGradient><linearGradient id="F" x1="27.367" y1="42.578" x2="52.63" y2="42.578" xlink:href="#H"><stop stop-color="#6cbcfc"/><stop offset="1" stop-color="#458dfc"/></linearGradient><clipPath id="G"><path fill="#fff" d="M0 0h80v71.155H0z"/></clipPath><linearGradient id="H" gradientUnits="userSpaceOnUse"/></defs></svg>