<svg xmlns="http://www.w3.org/2000/svg" xmlns:xlink="http://www.w3.org/1999/xlink" width="70" height="95" fill="none" xmlns:v="https://vecta.io/nano"><path d="M69.423 4.31v86.395c0 2.384-1.926 4.31-4.31 4.31H4.31C1.926 95 0 93.074 0 90.706V4.31C0 1.926 1.926 0 4.31 0h60.818c2.368 0 4.294 1.926 4.294 4.31z" fill="url(#A)"/><path d="M65 7.947v79.107C65 89.236 63.308 91 61.213 91H7.787C5.693 90.986 4 89.222 4 87.053V7.947C4 5.764 5.693 4 7.787 4h53.439C63.308 4 65 5.764 65 7.947z" fill="url(#B)"/><path d="M26.872 18.252v3.931a.5.5 0 0 1-.505.505h-4.815a.5.5 0 0 0-.505.505v4.816a.5.5 0 0 1-.505.505H16.61a.5.5 0 0 1-.505-.505v-4.815a.5.5 0 0 0-.505-.505h-4.8a.5.5 0 0 1-.505-.505v-3.931a.5.5 0 0 1 .505-.505h4.816a.5.5 0 0 0 .505-.505v-4.816a.5.5 0 0 1 .505-.505h3.931a.5.5 0 0 1 .505.505v4.816a.5.5 0 0 0 .505.505h4.8a.5.5 0 0 1 .505.505z" fill="url(#C)"/><use xlink:href="#K" opacity=".5" fill="url(#D)"/><path d="M58.576 17.052H34.893c-.316 0-.568-.253-.568-.568v-1.8c0-.316.253-.568.568-.568h23.683c.316 0 .568.253.568.568V16.5c-.016.3-.253.553-.568.553z" fill="url(#E)"/><path opacity=".5" d="M51.566 24.725H34.893c-.316 0-.568-.253-.568-.568v-1.816c0-.316.253-.568.568-.568h16.673c.316 0 .568.253.568.568v1.816c-.016.316-.253.568-.568.568z" fill="url(#F)"/><use xlink:href="#K" y="8.62" opacity=".5" fill="url(#G)"/><path opacity=".5" d="M58.576 56.918H10.847c-.316 0-.568-.253-.568-.568v-1.816c0-.316.253-.568.568-.568h47.729c.316 0 .568.253.568.568v1.831c-.016.3-.253.553-.568.553z" fill="url(#H)"/><path opacity=".5" d="M58.576 65.554H10.847c-.316 0-.568-.253-.568-.568V63.17c0-.316.253-.568.568-.568h47.729c.316 0 .568.253.568.568v1.816c-.016.316-.253.568-.568.568z" fill="url(#I)"/><use xlink:href="#K" y="34.498" opacity=".5" fill="url(#D)"/><use xlink:href="#K" y="43.119" opacity=".5" fill="url(#J)"/><path opacity=".1" d="M69.423 4.31v86.395c0 2.384-1.926 4.31-4.31 4.31H4.31C1.926 95 0 93.074 0 90.706v-1.5C37.087 73.891 54.36 15.157 58.26 0h6.852c2.384 0 4.31 1.926 4.31 4.31z" fill="#1a6fb5" fill-opacity=".4"/><defs><linearGradient id="A" x1="95" y1="126" x2="-6" y2="-5.5" xlink:href="#L"><stop offset=".306" stop-color="#5ba7fc"/><stop offset="1" stop-color="#69b8fc"/></linearGradient><linearGradient id="B" x1="8.624" y1="7.046" x2="57.939" y2="78.031" xlink:href="#L"><stop offset=".306" stop-color="#fff"/></linearGradient><linearGradient id="C" x1="10" y1="9.5" x2="25" y2="34" xlink:href="#L"><stop stop-color="#b0f4ff"/><stop offset=".369" stop-color="#80e4fd"/><stop offset="1" stop-color="#6cddfc"/></linearGradient><linearGradient id="D" x1="10.291" y1="38.207" x2="59.136" y2="38.207" xlink:href="#L"><stop stop-color="#6cbcfc"/><stop offset="1" stop-color="#458dfc"/></linearGradient><linearGradient id="E" x1="34.325" y1="15.584" x2="59.136" y2="15.584" xlink:href="#L"><stop stop-color="#6cbcfc"/><stop offset="1" stop-color="#458dfc"/></linearGradient><linearGradient id="F" x1="34.325" y1="23.262" x2="52.126" y2="23.262" xlink:href="#L"><stop stop-color="#6cbcfc"/><stop offset="1" stop-color="#458dfc"/></linearGradient><linearGradient id="G" x1="10.291" y1="38.212" x2="59.136" y2="38.212" xlink:href="#L"><stop stop-color="#6cbcfc"/><stop offset="1" stop-color="#458dfc"/></linearGradient><linearGradient id="H" x1="10.291" y1="55.456" x2="59.136" y2="55.456" xlink:href="#L"><stop stop-color="#6cbcfc"/><stop offset="1" stop-color="#458dfc"/></linearGradient><linearGradient id="I" x1="10.291" y1="64.081" x2="59.136" y2="64.081" xlink:href="#L"><stop stop-color="#6cbcfc"/><stop offset="1" stop-color="#458dfc"/></linearGradient><linearGradient id="J" x1="10.291" y1="38.211" x2="59.136" y2="38.211" xlink:href="#L"><stop stop-color="#6cbcfc"/><stop offset="1" stop-color="#458dfc"/></linearGradient><path id="K" d="M58.576 39.677H10.847c-.316 0-.568-.253-.568-.568v-1.816c0-.316.253-.568.568-.568h47.729c.316 0 .568.253.568.568v1.816c-.016.316-.253.568-.568.568z"/><linearGradient id="L" gradientUnits="userSpaceOnUse"/></defs></svg>