<svg xmlns="http://www.w3.org/2000/svg" xmlns:xlink="http://www.w3.org/1999/xlink" width="132" height="115" fill="none" xmlns:v="https://vecta.io/nano"><g opacity=".26"><mask id="A" maskUnits="userSpaceOnUse" x="0" y="0" width="11" height="11" mask-type="alpha"><path d="M5.228 10.425c2.888 0 5.228-2.334 5.228-5.213S8.116 0 5.228 0 0 2.334 0 5.212s2.341 5.213 5.228 5.213z" fill="url(#Z)"/></mask><g mask="url(#A)"><path d="M5.228 10.425c2.888 0 5.228-2.334 5.228-5.213S8.116 0 5.228 0 0 2.334 0 5.212s2.341 5.213 5.228 5.213z" fill="url(#Z)"/></g><mask id="B" maskUnits="userSpaceOnUse" x="30" y="0" width="11" height="11" mask-type="alpha"><path d="M35.509 10.425c2.888 0 5.228-2.334 5.228-5.213S38.397 0 35.509 0s-5.228 2.334-5.228 5.212 2.341 5.213 5.228 5.213z" fill="url(#a)"/></mask><g mask="url(#B)"><path d="M35.509 10.425c2.888 0 5.228-2.334 5.228-5.213S38.397 0 35.509 0s-5.228 2.334-5.228 5.212 2.341 5.213 5.228 5.213z" fill="url(#a)"/></g><mask id="C" maskUnits="userSpaceOnUse" x="60" y="0" width="12" height="11" mask-type="alpha"><path d="M65.791 10.425c2.888 0 5.228-2.334 5.228-5.213S68.678 0 65.791 0s-5.228 2.334-5.228 5.212 2.341 5.213 5.228 5.213z" fill="url(#b)"/></mask><g mask="url(#C)"><path d="M65.791 10.425c2.888 0 5.228-2.334 5.228-5.213S68.678 0 65.791 0s-5.228 2.334-5.228 5.212 2.341 5.213 5.228 5.213z" fill="url(#b)"/></g><mask id="D" maskUnits="userSpaceOnUse" x="90" y="0" width="12" height="11" mask-type="alpha"><path d="M96.072 10.425c2.887 0 5.228-2.334 5.228-5.213S98.959 0 96.072 0s-5.228 2.334-5.228 5.212 2.341 5.213 5.228 5.213z" fill="url(#c)"/></mask><g mask="url(#D)"><path d="M96.072 10.425c2.887 0 5.228-2.334 5.228-5.213S98.959 0 96.072 0s-5.228 2.334-5.228 5.212 2.341 5.213 5.228 5.213z" fill="url(#c)"/></g><mask id="E" maskUnits="userSpaceOnUse" x="121" y="0" width="11" height="11" mask-type="alpha"><path d="M126.353 10.425c2.887 0 5.228-2.334 5.228-5.213S129.24 0 126.353 0s-5.229 2.334-5.229 5.212 2.341 5.213 5.229 5.213z" fill="url(#d)"/></mask><g mask="url(#E)"><path d="M126.353 10.425c2.887 0 5.228-2.334 5.228-5.213S129.24 0 126.353 0s-5.229 2.334-5.229 5.212 2.341 5.213 5.229 5.213z" fill="url(#d)"/></g><mask id="F" maskUnits="userSpaceOnUse" x="0" y="26" width="11" height="11" mask-type="alpha"><path d="M5.228 36.596c2.888 0 5.228-2.334 5.228-5.212s-2.341-5.212-5.228-5.212S0 28.505 0 31.383s2.341 5.212 5.228 5.212z" fill="url(#e)"/></mask><g mask="url(#F)"><path d="M5.228 36.596c2.888 0 5.228-2.334 5.228-5.212s-2.341-5.212-5.228-5.212S0 28.505 0 31.383s2.341 5.212 5.228 5.212z" fill="url(#e)"/></g><mask id="G" maskUnits="userSpaceOnUse" x="30" y="26" width="11" height="11" mask-type="alpha"><path d="M35.509 36.596c2.888 0 5.228-2.334 5.228-5.212s-2.341-5.212-5.228-5.212-5.228 2.334-5.228 5.212 2.341 5.212 5.228 5.212z" fill="url(#f)"/></mask><g mask="url(#G)"><use xlink:href="#AC" fill="url(#f)"/></g><mask id="H" maskUnits="userSpaceOnUse" x="60" y="26" width="12" height="11" mask-type="alpha"><path d="M65.791 36.596c2.888 0 5.228-2.334 5.228-5.212s-2.341-5.212-5.228-5.212-5.228 2.334-5.228 5.212 2.341 5.212 5.228 5.212z" fill="url(#g)"/></mask><g mask="url(#H)"><use xlink:href="#AC" x="30.282" fill="url(#h)"/></g><mask id="I" maskUnits="userSpaceOnUse" x="90" y="26" width="12" height="11" mask-type="alpha"><path d="M96.072 36.596c2.887 0 5.228-2.334 5.228-5.212s-2.341-5.212-5.228-5.212-5.228 2.334-5.228 5.212 2.341 5.212 5.228 5.212z" fill="url(#i)"/></mask><g mask="url(#I)"><path d="M96.072 36.596c2.887 0 5.228-2.334 5.228-5.212s-2.341-5.212-5.228-5.212-5.228 2.334-5.228 5.212 2.341 5.212 5.228 5.212z" fill="url(#i)"/></g><mask id="J" maskUnits="userSpaceOnUse" x="121" y="26" width="11" height="11" mask-type="alpha"><path d="M126.353 36.596c2.887 0 5.228-2.334 5.228-5.212s-2.341-5.212-5.228-5.212-5.229 2.334-5.229 5.212 2.341 5.212 5.229 5.212z" fill="url(#j)"/></mask><g mask="url(#J)"><path d="M126.353 36.596c2.887 0 5.228-2.334 5.228-5.212s-2.341-5.212-5.228-5.212-5.229 2.334-5.229 5.212 2.341 5.212 5.229 5.212z" fill="url(#j)"/></g><mask id="K" maskUnits="userSpaceOnUse" x="0" y="52" width="11" height="11" mask-type="alpha"><path d="M5.228 62.713c2.888 0 5.228-2.334 5.228-5.212s-2.341-5.213-5.228-5.213S0 54.621 0 57.5s2.341 5.212 5.228 5.212z" fill="url(#k)"/></mask><g mask="url(#K)"><path d="M5.228 62.713c2.888 0 5.228-2.334 5.228-5.212s-2.341-5.213-5.228-5.213S0 54.621 0 57.5s2.341 5.212 5.228 5.212z" fill="url(#k)"/></g><mask id="L" maskUnits="userSpaceOnUse" x="30" y="52" width="11" height="11" mask-type="alpha"><path d="M35.509 62.713c2.888 0 5.228-2.334 5.228-5.212s-2.341-5.213-5.228-5.213-5.228 2.334-5.228 5.213 2.341 5.212 5.228 5.212z" fill="url(#l)"/></mask><g mask="url(#L)"><use xlink:href="#AD" fill="url(#l)"/></g><mask id="M" maskUnits="userSpaceOnUse" x="60" y="52" width="12" height="11" mask-type="alpha"><path d="M65.791 62.713c2.888 0 5.228-2.334 5.228-5.212s-2.341-5.213-5.228-5.213-5.228 2.334-5.228 5.213 2.341 5.212 5.228 5.212z" fill="url(#m)"/></mask><g mask="url(#M)"><use xlink:href="#AD" x="30.282" fill="url(#n)"/></g><mask id="N" maskUnits="userSpaceOnUse" x="90" y="52" width="12" height="11" mask-type="alpha"><path d="M96.072 62.713c2.887 0 5.228-2.334 5.228-5.212s-2.341-5.213-5.228-5.213-5.228 2.334-5.228 5.213 2.341 5.212 5.228 5.212z" fill="url(#o)"/></mask><g mask="url(#N)"><path d="M96.072 62.713c2.887 0 5.228-2.334 5.228-5.212s-2.341-5.213-5.228-5.213-5.228 2.334-5.228 5.213 2.341 5.212 5.228 5.212z" fill="url(#o)"/></g><mask id="O" maskUnits="userSpaceOnUse" x="121" y="52" width="11" height="11" mask-type="alpha"><path d="M126.353 62.713c2.887 0 5.228-2.334 5.228-5.212s-2.341-5.213-5.228-5.213-5.229 2.334-5.229 5.213 2.341 5.212 5.229 5.212z" fill="url(#p)"/></mask><g mask="url(#O)"><use xlink:href="#AE" fill="url(#p)"/></g><mask id="P" maskUnits="userSpaceOnUse" x="0" y="78" width="11" height="11" mask-type="alpha"><path d="M5.228 88.884c2.888 0 5.228-2.334 5.228-5.213s-2.341-5.212-5.228-5.212S0 80.792 0 83.671s2.341 5.213 5.228 5.213z" fill="url(#q)"/></mask><g mask="url(#P)"><path d="M5.228 88.884c2.888 0 5.228-2.334 5.228-5.213s-2.341-5.212-5.228-5.212S0 80.792 0 83.671s2.341 5.213 5.228 5.213z" fill="url(#q)"/></g><mask id="Q" maskUnits="userSpaceOnUse" x="30" y="78" width="11" height="11" mask-type="alpha"><path d="M35.509 88.884c2.888 0 5.228-2.334 5.228-5.213s-2.341-5.212-5.228-5.212-5.228 2.334-5.228 5.212 2.341 5.213 5.228 5.213z" fill="url(#r)"/></mask><g mask="url(#Q)"><use xlink:href="#AF" fill="url(#r)"/></g><mask id="R" maskUnits="userSpaceOnUse" x="60" y="78" width="12" height="11" mask-type="alpha"><path d="M65.791 88.884c2.888 0 5.228-2.334 5.228-5.213s-2.341-5.212-5.228-5.212-5.228 2.334-5.228 5.212 2.341 5.213 5.228 5.213z" fill="url(#s)"/></mask><g mask="url(#R)"><use xlink:href="#AF" x="30.282" fill="url(#t)"/></g><mask id="S" maskUnits="userSpaceOnUse" x="90" y="78" width="12" height="11" mask-type="alpha"><path d="M96.072 88.884c2.887 0 5.228-2.334 5.228-5.213s-2.341-5.212-5.228-5.212-5.228 2.334-5.228 5.212 2.341 5.213 5.228 5.213z" fill="url(#u)"/></mask><g mask="url(#S)"><path d="M96.072 88.884c2.887 0 5.228-2.334 5.228-5.213s-2.341-5.212-5.228-5.212-5.228 2.334-5.228 5.212 2.341 5.213 5.228 5.213z" fill="url(#u)"/></g><mask id="T" maskUnits="userSpaceOnUse" x="121" y="78" width="11" height="11" mask-type="alpha"><path d="M126.353 88.884c2.887 0 5.228-2.334 5.228-5.213s-2.341-5.212-5.228-5.212-5.229 2.334-5.229 5.212 2.341 5.213 5.229 5.213z" fill="url(#v)"/></mask><g mask="url(#T)"><path d="M126.353 88.884c2.887 0 5.228-2.334 5.228-5.213s-2.341-5.212-5.228-5.212-5.229 2.334-5.229 5.212 2.341 5.213 5.229 5.213z" fill="url(#v)"/></g><mask id="U" maskUnits="userSpaceOnUse" x="0" y="104" width="11" height="11" mask-type="alpha"><path d="M5.228 115c2.888 0 5.228-2.334 5.228-5.212s-2.341-5.213-5.228-5.213S0 106.909 0 109.788 2.341 115 5.228 115z" fill="url(#w)"/></mask><g mask="url(#U)"><path d="M5.228 115c2.888 0 5.228-2.334 5.228-5.212s-2.341-5.213-5.228-5.213S0 106.909 0 109.788 2.341 115 5.228 115z" fill="url(#w)"/></g><mask id="V" maskUnits="userSpaceOnUse" x="30" y="104" width="11" height="11" mask-type="alpha"><path d="M35.509 115c2.888 0 5.228-2.334 5.228-5.212s-2.341-5.213-5.228-5.213-5.228 2.334-5.228 5.213S32.622 115 35.509 115z" fill="url(#x)"/></mask><g mask="url(#V)"><path d="M35.509 115c2.888 0 5.228-2.334 5.228-5.212s-2.341-5.213-5.228-5.213-5.228 2.334-5.228 5.213S32.622 115 35.509 115z" fill="url(#x)"/></g><mask id="W" maskUnits="userSpaceOnUse" x="60" y="104" width="12" height="11" mask-type="alpha"><path d="M65.791 115c2.888 0 5.228-2.334 5.228-5.212s-2.341-5.213-5.228-5.213-5.228 2.334-5.228 5.213S62.903 115 65.791 115z" fill="url(#y)"/></mask><g mask="url(#W)"><path d="M65.791 115c2.888 0 5.228-2.334 5.228-5.212s-2.341-5.213-5.228-5.213-5.228 2.334-5.228 5.213S62.903 115 65.791 115z" fill="url(#y)"/></g><mask id="X" maskUnits="userSpaceOnUse" x="90" y="104" width="12" height="11" mask-type="alpha"><path d="M96.072 115c2.887 0 5.228-2.334 5.228-5.212s-2.341-5.213-5.228-5.213-5.228 2.334-5.228 5.213S93.184 115 96.072 115z" fill="url(#z)"/></mask><g mask="url(#X)"><path d="M96.072 115c2.887 0 5.228-2.334 5.228-5.212s-2.341-5.213-5.228-5.213-5.228 2.334-5.228 5.213S93.184 115 96.072 115z" fill="url(#z)"/></g><mask id="Y" maskUnits="userSpaceOnUse" x="121" y="104" width="11" height="11" mask-type="alpha"><path d="M126.353 115c2.887 0 5.228-2.334 5.228-5.212s-2.341-5.213-5.228-5.213-5.229 2.334-5.229 5.213 2.341 5.212 5.229 5.212z" fill="url(#AA)"/></mask><g mask="url(#Y)"><use xlink:href="#AE" y="52.287" fill="url(#AB)"/></g></g><defs><linearGradient id="Z" x1="54.996" y1="131.134" x2="-16.406" y2="-50.67" xlink:href="#AG"><stop stop-color="#fff"/></linearGradient><linearGradient id="a" x1="85.277" y1="131.134" x2="13.875" y2="-50.67" xlink:href="#AG"><stop stop-color="#fff"/></linearGradient><linearGradient id="b" x1="115.558" y1="131.134" x2="44.157" y2="-50.67" xlink:href="#AG"><stop stop-color="#fff"/></linearGradient><linearGradient id="c" x1="145.839" y1="131.134" x2="74.438" y2="-50.67" xlink:href="#AG"><stop stop-color="#fff"/></linearGradient><linearGradient id="d" x1="176.12" y1="131.134" x2="104.719" y2="-50.67" xlink:href="#AG"><stop stop-color="#fff"/></linearGradient><linearGradient id="e" x1="54.996" y1="157.303" x2="-16.404" y2="-24.499" xlink:href="#AG"><stop stop-color="#fff"/></linearGradient><linearGradient id="f" x1="85.277" y1="157.303" x2="13.877" y2="-24.499" xlink:href="#AG"><stop stop-color="#fff"/></linearGradient><linearGradient id="g" x1="115.558" y1="157.303" x2="44.158" y2="-24.499" xlink:href="#AG"><stop stop-color="#fff"/></linearGradient><linearGradient id="h" x1="85.276" y1="157.303" x2="13.876" y2="-24.499" xlink:href="#AG"><stop stop-color="#fff"/></linearGradient><linearGradient id="i" x1="145.839" y1="157.303" x2="74.439" y2="-24.499" xlink:href="#AG"><stop stop-color="#fff"/></linearGradient><linearGradient id="j" x1="176.12" y1="157.303" x2="104.72" y2="-24.499" xlink:href="#AG"><stop stop-color="#fff"/></linearGradient><linearGradient id="k" x1="54.996" y1="183.421" x2="-16.406" y2="1.618" xlink:href="#AG"><stop stop-color="#fff"/></linearGradient><linearGradient id="l" x1="85.277" y1="183.421" x2="13.875" y2="1.618" xlink:href="#AG"><stop stop-color="#fff"/></linearGradient><linearGradient id="m" x1="115.558" y1="183.421" x2="44.157" y2="1.618" xlink:href="#AG"><stop stop-color="#fff"/></linearGradient><linearGradient id="n" x1="85.276" y1="183.421" x2="13.875" y2="1.618" xlink:href="#AG"><stop stop-color="#fff"/></linearGradient><linearGradient id="o" x1="145.839" y1="183.421" x2="74.438" y2="1.618" xlink:href="#AG"><stop stop-color="#fff"/></linearGradient><linearGradient id="p" x1="176.12" y1="183.421" x2="104.719" y2="1.618" xlink:href="#AG"><stop stop-color="#fff"/></linearGradient><linearGradient id="q" x1="54.996" y1="209.592" x2="-16.406" y2="27.789" xlink:href="#AG"><stop stop-color="#fff"/></linearGradient><linearGradient id="r" x1="85.277" y1="209.592" x2="13.875" y2="27.789" xlink:href="#AG"><stop stop-color="#fff"/></linearGradient><linearGradient id="s" x1="115.558" y1="209.592" x2="44.157" y2="27.789" xlink:href="#AG"><stop stop-color="#fff"/></linearGradient><linearGradient id="t" x1="85.276" y1="209.592" x2="13.875" y2="27.789" xlink:href="#AG"><stop stop-color="#fff"/></linearGradient><linearGradient id="u" x1="145.839" y1="209.592" x2="74.438" y2="27.789" xlink:href="#AG"><stop stop-color="#fff"/></linearGradient><linearGradient id="v" x1="176.12" y1="209.592" x2="104.719" y2="27.789" xlink:href="#AG"><stop stop-color="#fff"/></linearGradient><linearGradient id="w" x1="54.996" y1="235.709" x2="-16.406" y2="53.905" xlink:href="#AG"><stop stop-color="#fff"/></linearGradient><linearGradient id="x" x1="85.277" y1="235.709" x2="13.875" y2="53.905" xlink:href="#AG"><stop stop-color="#fff"/></linearGradient><linearGradient id="y" x1="115.558" y1="235.709" x2="44.157" y2="53.905" xlink:href="#AG"><stop stop-color="#fff"/></linearGradient><linearGradient id="z" x1="145.839" y1="235.709" x2="74.438" y2="53.905" xlink:href="#AG"><stop stop-color="#fff"/></linearGradient><linearGradient id="AA" x1="176.12" y1="235.709" x2="104.719" y2="53.905" xlink:href="#AG"><stop stop-color="#fff"/></linearGradient><linearGradient id="AB" x1="176.12" y1="183.422" x2="104.719" y2="1.618" xlink:href="#AG"><stop stop-color="#fff"/></linearGradient><path id="AC" d="M35.509 36.596c2.888 0 5.228-2.334 5.228-5.212s-2.341-5.212-5.228-5.212-5.228 2.334-5.228 5.212 2.341 5.212 5.228 5.212z"/><path id="AD" d="M35.509 62.713c2.888 0 5.228-2.334 5.228-5.212s-2.341-5.213-5.228-5.213-5.228 2.334-5.228 5.213 2.341 5.212 5.228 5.212z"/><path id="AE" d="M126.353 62.713c2.887 0 5.228-2.334 5.228-5.212s-2.341-5.213-5.228-5.213-5.229 2.334-5.229 5.213 2.341 5.212 5.229 5.212z"/><path id="AF" d="M35.509 88.884c2.888 0 5.228-2.334 5.228-5.213s-2.341-5.212-5.228-5.212-5.228 2.334-5.228 5.212 2.341 5.213 5.228 5.213z"/><linearGradient id="AG" gradientUnits="userSpaceOnUse"/></defs></svg>